# xmcd CD database file
#
# Track frame offsets:
#	183
#	14620
#	30603
#	52093
#	65953
#	87400
#	104770
#	124640
#	141653
#	158250
#	173833
#	193303
#	208265
#	226695
#	251820
#
# Disc length: 3445 seconds
#
# Revision: 11
# Processed by: cddbd v1.5.2PL0 Copyright (c) Steve Scherf et al.
# Submitted via: CDex 1.50
#
DISCID=e30d730f
DTITLE=Fun Lovin' Criminals - Come Find Yourself
DYEAR=1996
DGENRE=Alt. Rock
TTITLE0=The Fun Lovin' Criminal
TTITLE1=Passive/Aggressive
TTITLE2=The Grave And The Constant
TTITLE3=Scooby Snacks
TTITLE4=Smoke 'Em
TTITLE5=Bombin' The L
TTITLE6=I Can't Get With That
TTITLE7=King Of New York
TTITLE8=We Have All The Time In The World
TTITLE9=Bear Hug
TTITLE10=Come Find Yourself
TTITLE11=Crime And Punishment
TTITLE12=Methadonia
TTITLE13=I Can't Get With That (Schmoove Version)
TTITLE14=Coney Island Girl
EXTD=YEAR: 1996
EXTT0=
EXTT1=
EXTT2=
EXTT3=
EXTT4=
EXTT5=
EXTT6=
EXTT7=
EXTT8=
EXTT9=
EXTT10=
EXTT11=
EXTT12=
EXTT13=
EXTT14=
PLAYORDER=
